<svg id="Capa_1" fill="white" data-name="Capa 1" xmlns="http://www.w3.org/2000/svg" viewBox="0 0 256 275.53"><path d="M238,223.12a41,41,0,0,1-25.1,32.28,41.82,41.82,0,0,1-21,2.75A54.25,54.25,0,0,1,171,251c-9.93-5.52-19.86-14.06-31.44-26.75,18.2-22.34,29.23-42.75,33.37-60.95a69.12,69.12,0,0,0,1.38-23.45,44.57,44.57,0,0,0-7.45-18.75C158.33,108.67,144,101.5,128,101.5s-30.34,7.44-38.89,19.58a44.84,44.84,0,0,0-7.45,18.75A57.3,57.3,0,0,0,83,163.28c4.14,18.2,15.44,38.88,33.37,61.22C105.11,237.19,94.9,245.74,85,251.26a54.25,54.25,0,0,1-21,7.17,44.1,44.1,0,0,1-21-2.76A41,41,0,0,1,18,223.4a45.7,45.7,0,0,1,2.48-21.51c.83-2.76,2.21-5.52,3.59-8.83,1.93-4.41,4.14-9.1,6.34-13.79l.28-.55c19-41.1,39.44-83,60.68-123.83l.82-1.66c2.21-4.13,4.41-8.55,6.62-12.68a60.58,60.58,0,0,1,7.72-12.14,28.95,28.95,0,0,1,44.13,0,60.14,60.14,0,0,1,7.72,12.14c2.21,4.13,4.42,8.55,6.62,12.68l.83,1.66c21,41.09,41.37,83,60.4,124.11v.27c2.21,4.41,4.14,9.38,6.34,13.79,1.38,3.31,2.76,6.07,3.59,8.83A46.58,46.58,0,0,1,238,223.12Zm-110-13c-14.9-18.75-24.55-36.41-27.86-51.3A44.4,44.4,0,0,1,99.31,142a26.81,26.81,0,0,1,4.41-11.59A29.32,29.32,0,0,1,128,118.31c10.2,0,19.3,4.42,24.27,12.14A26.81,26.81,0,0,1,156.68,142a44.39,44.39,0,0,1-.83,16.82c-3.31,14.62-13,32.27-27.85,51.3Zm124.38-14.34c-1.38-3.31-2.76-6.9-4.13-9.93-2.21-5-4.42-9.65-6.35-14.07l-.27-.27c-19-41.37-39.44-83.29-61-124.66l-.82-1.66c-2.21-4.14-4.42-8.55-6.62-13-2.76-5-5.52-10.2-9.93-15.17a44.56,44.56,0,0,0-35-17.1C114.48,0,102.07,6.07,93,16.55A94.58,94.58,0,0,0,83,31.72c-2.21,4.41-4.41,8.83-6.62,13l-.83,1.66C54.36,87.71,33.67,129.63,14.64,171l-.27.55c-1.93,4.41-4.14,9.1-6.35,14.07q-2.07,4.55-4.13,9.93A62,62,0,0,0,.57,225.33a58.62,58.62,0,0,0,35.86,45.78,56.54,56.54,0,0,0,22.34,4.42,61.64,61.64,0,0,0,7.17-.56,72.8,72.8,0,0,0,27.58-9.37c11.31-6.34,22.07-15.45,34.2-28.68,12.13,13.23,23.17,22.34,34.2,28.68A72.8,72.8,0,0,0,189.5,275a61.81,61.81,0,0,0,7.17.56A55.62,55.62,0,0,0,219,271.11a58.47,58.47,0,0,0,35.85-45.78c2.21-9.65,1.11-19.3-2.48-29.51Z" transform="translate(0)"/></svg>